<?xml version="1.0" standalone="no"?>
<!DOCTYPE svg PUBLIC "-//W3C//DTD SVG 20010904//EN"
 "http://www.w3.org/TR/2001/REC-SVG-20010904/DTD/svg10.dtd">
<svg version="1.0" xmlns="http://www.w3.org/2000/svg"
 width="250.000000pt" height="250.000000pt" viewBox="0 0 250.000000 250.000000"
 preserveAspectRatio="xMidYMid meet">
<metadata>
Created by potrace 1.11, written by Peter Selinger 2001-2013
</metadata>
<g transform="translate(0.000000,250.000000) scale(0.100000,-0.100000)"
fill="#000000" stroke="none">
<path d="M1045 2269 c-253 -39 -474 -188 -571 -384 -47 -95 -51 -152 -14 -172
14 -7 42 -15 62 -18 38 -6 161 -81 156 -96 -2 -4 -19 -18 -38 -31 -55 -36 -80
-97 -81 -193 l0 -80 -66 -50 c-71 -54 -181 -167 -248 -255 -61 -80 -68 -96
-54 -123 37 -70 235 -278 331 -346 35 -24 38 -29 38 -80 0 -29 5 -71 12 -93
14 -48 73 -103 125 -117 51 -15 1054 -15 1105 -1 84 24 137 102 138 201 l0 57
86 73 c128 108 294 294 294 329 0 15 -66 104 -135 183 -65 74 -165 168 -223
209 -16 11 -20 29 -24 104 -5 104 -23 145 -80 182 l-35 24 -6 96 c-6 106 -35
207 -83 289 -42 73 -149 173 -231 216 -127 67 -317 98 -458 76z m-245 -761
c11 -24 23 -60 26 -80 4 -21 12 -42 18 -47 19 -16 178 -40 309 -47 188 -10
487 18 526 50 18 14 71 126 71 150 0 16 5 18 36 13 41 -7 77 -36 94 -76 7 -19
10 -188 8 -571 -3 -501 -4 -547 -21 -571 -9 -14 -29 -31 -43 -37 -36 -17
-1112 -17 -1148 0 -14 6 -34 23 -43 37 -17 24 -18 69 -21 568 -3 600 -4 594
60 633 18 11 50 20 71 20 35 0 40 -3 57 -42z"/>
<path d="M934 1141 c-41 -25 -68 -64 -89 -129 -23 -70 -16 -193 15 -256 70
-145 206 -142 270 6 18 41 22 71 23 145 0 84 -3 99 -29 151 -48 93 -121 125
-190 83z"/>
<path d="M1443 1141 c-66 -42 -104 -149 -96 -273 12 -178 137 -275 239 -185
50 43 75 104 81 196 7 100 -13 173 -64 231 -32 35 -45 43 -83 47 -34 3 -53 -1
-77 -16z"/>
<path d="M920 521 c0 -7 24 -23 54 -37 153 -70 400 -72 553 -4 67 29 43 41
-47 23 -146 -29 -440 -17 -546 24 -7 3 -14 0 -14 -6z"/>
</g>
</svg>
